<svg width="260" height="181" viewBox="0 0 260 181" fill="none" xmlns="http://www.w3.org/2000/svg">
<path d="M242.213 29.4181C242.975 29.9787 243.859 30.3871 244.878 30.41C247.513 30.469 249.694 28.3832 249.753 25.7488C249.812 23.1143 247.723 20.9298 245.089 20.8708C243.274 20.8301 241.724 21.8491 240.883 23.3242C221.87 27.1525 205.32 38.0413 193.258 52.7292L193.215 52.6037C183.376 64.9577 167.155 77.9552 151.817 79.5762C131.97 82.8544 114.005 66.4886 116.313 48.2845C123.019 36.4798 145.8 49.8622 144.751 34.173C151.482 35.9879 161.118 47.3449 156.59 57.3947C159.724 54.6713 161.925 50.7366 162.723 46.4395C166.08 19.1553 127.822 11.809 115.219 33.8333C104.577 49.218 110.096 72.4712 126.598 81.3736C144.004 91.3956 164.068 86.5979 179.51 75.4262C171.864 93.5715 170.249 114.017 176.894 133.105C177.313 134.557 177.757 135.903 178.235 137.055C182.399 126.071 189.519 120.267 185.682 108.93C182.151 98.4965 179.369 90.9095 183.53 80.3201C194.214 55.7355 215.289 35.8991 242.213 29.4181Z" fill="white" fill-opacity="0.08"/>
<path d="M182.239 72.5042C181.384 73.6784 165.725 94.7748 135.595 111.396C97.0829 136.423 59.3703 131.473 43.694 152.277C40.4729 143.572 43.9936 128.878 55.6549 125.854C49.1041 124.134 42.8362 121.716 37.1613 118.44C23.2338 110.391 13.9424 98.7106 10.2944 84.6637C7.32848 73.2435 9.27013 61.2592 15.7634 50.9103C22.7668 39.7468 34.2242 31.8686 47.1934 29.2926C49.9751 28.7416 52.7405 28.509 55.466 28.57C72.9175 28.961 88.4226 41.4122 91.9589 59.2249C92.4092 61.4912 92.58 63.7633 92.5294 66.0214L92.5481 65.9975C92.186 82.0255 84.6005 97.4818 64.4355 98.2598C44.2703 99.0439 32.509 82.5378 39.4312 67.2762C43.6273 72.7146 45.4887 81.3893 46.8859 83.2729C51.1556 66.8587 54.9804 98.0874 76.0931 86.8636C78.88 84.9948 81.2995 82.5863 83.2222 79.7143C87.0805 73.9402 88.4657 67.0023 87.1091 60.1912C83.548 42.2655 66.0674 30.5688 48.1536 34.1423C36.5142 36.4565 26.235 43.5231 19.9526 53.5396C14.19 62.7207 12.4612 73.3372 15.0775 83.4226C18.3874 96.1592 26.8795 106.786 39.6349 114.156C56.6324 123.969 79.0017 126.459 99.4701 120.817C100.225 120.606 100.923 120.348 101.669 120.134C86.7531 119.184 81.1411 98.1938 98.7902 88.1373C96.838 93.0037 101.397 114.389 119.826 113.542C138.253 112.698 182.007 72.8209 182.239 72.5042Z" fill="white" fill-opacity="0.08"/>
<path d="M143.998 175.29C154.228 167.053 150.848 153.771 150.848 153.771C167.539 166.27 147.98 122.382 166.172 101.09C139.554 131.051 137.944 145.687 143.998 175.29Z" fill="white" fill-opacity="0.08"/>
</svg>
