<svg width="193" height="19" viewBox="0 0 193 19" fill="none" xmlns="http://www.w3.org/2000/svg">
<path d="M192.126 9.49999C192.126 9.49999 188.458 6.55599 185.742 7.02132C186.98 5.38532 187.027 3.61199 185.742 0.863987C183.614 5.34265 176.86 7.77199 172.966 8.83332H167.934C167.476 7.68932 165.887 6.83999 163.979 6.83999C162.071 6.83999 160.482 7.68932 160.023 8.83332H110.571C105.898 8.83332 104.5 8.83332 101.5 8.83332C98 8.83332 97.103 8.83332 92.4297 8.83332H32.9777C32.519 7.68932 30.9297 6.83999 29.0217 6.83999C27.1137 6.83999 25.5243 7.68932 25.067 8.83332H20.035C16.1403 7.77199 9.387 5.34265 7.25767 0.863987C5.97234 3.61199 6.02034 5.38532 7.25767 7.02132C4.543 6.55599 0.875 9.49999 0.875 9.49999C0.875 9.49999 4.543 12.444 7.25767 11.9787C6.02034 13.6147 5.97234 15.388 7.25767 18.136C9.387 13.656 16.1417 11.228 20.0363 10.1667H25.0657C25.5243 11.3107 27.1137 12.16 29.0217 12.16C30.9297 12.16 32.519 11.3107 32.9777 10.1667H92.4297C96.563 10.1667 98.5007 10.1667 101.5 10.1667C104.5 10.1667 106.438 10.1667 110.571 10.1667H160.023C160.482 11.3107 162.071 12.16 163.979 12.16C165.887 12.16 167.476 11.3107 167.935 10.1667H172.964C176.859 11.228 183.612 13.656 185.742 18.136C187.027 15.388 186.98 13.6147 185.742 11.9787C188.458 12.444 192.126 9.49999 192.126 9.49999Z" fill="#663E2A"/>
</svg>
