<svg width="337" height="32" viewBox="0 0 337 32" fill="none" xmlns="http://www.w3.org/2000/svg">
<path d="M337 15.772C337 15.772 330.537 10.488 325.751 11.3232C327.934 8.38692 328.016 5.20412 325.751 0.271973C322.001 8.31034 310.101 12.6705 303.238 14.5754H294.372C293.566 12.5222 290.765 10.9978 287.403 10.9978C284.041 10.9978 281.241 12.5222 280.432 14.5754H193.294C185.059 14.5754 182.596 14.5754 177.31 14.5754C171.143 14.5754 169.562 14.5754 161.327 14.5754H56.5677C55.7595 12.5222 52.9589 10.9978 49.5968 10.9978C46.2348 10.9978 43.4342 12.5222 42.6284 14.5754H33.7616C26.8988 12.6705 14.9989 8.31034 11.2468 0.271973C8.98194 5.20412 9.06652 8.38692 11.2468 11.3232C6.46334 10.488 0 15.772 0 15.772C0 15.772 6.46334 21.0559 11.2468 20.2207C9.06652 23.157 8.98194 26.3398 11.2468 31.272C14.9989 23.2312 26.9012 18.8734 33.7639 16.9685H42.626C43.4342 19.0218 46.2348 20.5462 49.5968 20.5462C52.9589 20.5462 55.7595 19.0218 56.5677 16.9685H161.327C168.61 16.9685 172.025 16.9685 177.31 16.9685C182.596 16.9685 186.01 16.9685 193.294 16.9685H280.432C281.241 19.0218 284.041 20.5462 287.403 20.5462C290.765 20.5462 293.566 19.0218 294.374 16.9685H303.236C310.099 18.8734 321.999 23.2312 325.751 31.272C328.016 26.3398 327.934 23.157 325.751 20.2207C330.537 21.0559 337 15.772 337 15.772Z" fill="#663E2A"/>
</svg>
