<svg width="135" height="62" viewBox="0 0 135 62" fill="none" xmlns="http://www.w3.org/2000/svg">
<path d="M17.2983 53.4724C16.1588 53.4724 15.1032 53.0702 14.1313 52.2659C13.1594 51.4616 12.4891 50.4394 12.1205 49.1994C11.9864 48.7302 11.8859 48.2275 11.8189 47.6913C11.7853 47.1886 11.7686 46.6524 11.7686 46.0827C11.7686 44.273 12.0032 42.2119 12.4724 39.8995C12.9751 37.587 13.6118 35.1406 14.3826 32.56C15.1869 29.946 16.0583 27.332 16.9967 24.7179C17.9685 22.0704 18.9069 19.5234 19.8118 17.0769C20.7502 14.5969 21.6047 12.318 22.3756 10.2402C23.1464 8.12882 23.7496 6.35261 24.1853 4.91154C24.4199 4.17425 24.5372 3.571 24.5372 3.10182C24.5372 2.49858 24.3361 2.19696 23.9339 2.19696C23.4312 2.19696 22.6604 2.6829 21.6215 3.65479C20.5826 4.62668 19.3929 5.95045 18.0523 7.62612C16.7118 9.30178 15.321 11.2456 13.8799 13.4574C12.4388 15.6693 11.0648 18.0153 9.75778 20.4952C8.45076 22.9752 7.31131 25.4887 6.33942 28.0357C5.36753 30.5828 4.66375 33.046 4.22808 35.4254C4.19457 35.66 4.16105 36.0287 4.12754 36.5314C4.09403 37.0341 4.01024 37.4865 3.87619 37.8887C3.77565 38.2908 3.55781 38.4919 3.22268 38.4919C2.48539 38.4584 1.96593 38.0897 1.66431 37.386C1.3962 36.6822 1.21188 36.0287 1.11134 35.4254C0.843233 33.6492 0.70918 31.5714 0.70918 29.1919C0.70918 27.2817 0.792963 25.3044 0.96053 23.2601C1.1281 21.2158 1.36269 19.272 1.66431 17.4288C1.96593 15.5855 2.31782 14.0272 2.71998 12.7537C2.98809 11.9493 3.35673 11.2288 3.82592 10.592C4.32862 9.92178 4.78105 9.58665 5.18321 9.58665C5.4178 9.58665 5.60213 9.75422 5.73618 10.0893C5.90375 10.4245 5.97077 11.0277 5.93726 11.8991C5.93726 12.2677 5.76969 12.9715 5.43456 14.0104C5.13294 15.0158 4.76429 16.3228 4.32862 17.9315C3.92646 19.5401 3.57457 21.4001 3.27295 23.5114C2.97133 25.6228 2.82052 27.952 2.82052 30.499C2.82052 31.7054 2.87079 32.9622 2.97133 34.2692C3.27295 33.3308 3.72538 32.0238 4.32862 30.3482C4.96537 28.6725 5.73618 26.779 6.64104 24.6676C7.57941 22.5563 8.61833 20.3779 9.75778 18.1325C10.9307 15.8536 12.1875 13.6418 13.528 11.4969C14.8686 9.35205 16.2761 7.40828 17.7507 5.66559C19.2253 3.9229 20.7334 2.53209 22.275 1.49318C23.0458 0.990478 23.8501 0.739129 24.688 0.739129C25.5928 0.739129 26.3636 1.02399 27.0004 1.59372C27.6707 2.16344 27.9723 2.96776 27.9053 4.00668C27.8382 5.41424 27.4863 6.83855 26.8496 8.27963C26.2463 9.68719 25.5258 11.0612 24.688 12.4018C23.8837 13.7423 23.1296 15.0326 22.4258 16.2726C21.4539 18.0488 20.4653 20.0261 19.4599 22.2044C18.488 24.3828 17.5831 26.6617 16.7453 29.0411C15.941 31.4206 15.2875 33.8168 14.7848 36.2297C14.2821 38.6427 14.0307 40.9719 14.0307 43.2173C14.0307 45.094 14.2653 46.9205 14.7345 48.6967C15.1032 50.0037 15.5556 50.9086 16.0918 51.4113C16.6615 51.914 17.2145 52.1653 17.7507 52.1653C18.354 52.1653 18.9069 51.9978 19.4096 51.6626C19.9458 51.3275 20.3648 50.9589 20.6664 50.5567C21.0015 50.1881 21.1523 49.9702 21.1188 49.9032C21.1858 49.8697 21.2529 49.8529 21.3199 49.8529C21.5545 49.8529 21.6047 50.0037 21.4707 50.3054C21.3702 50.6405 21.2193 50.9756 21.0183 51.3108C20.8172 51.6794 20.6664 51.914 20.5658 52.0145C20.0631 52.5172 19.5269 52.8859 18.9572 53.1205C18.421 53.3551 17.868 53.4724 17.2983 53.4724ZM23.5007 39.5978C22.9645 39.5978 22.5121 39.313 22.1434 38.7432C21.8753 38.2741 21.7413 37.7211 21.7413 37.0843C21.7413 36.1795 21.9424 35.1573 22.3445 34.0179C22.7467 32.8784 23.2829 31.7725 23.9532 30.7C24.6569 29.6276 25.4278 28.7228 26.2656 27.9855C27.1369 27.2147 28.025 26.7622 28.9299 26.6282C29.265 26.5947 29.6672 26.6784 30.1364 26.8795C30.6056 27.0806 30.991 27.332 31.2926 27.6336C31.3596 27.2984 31.4099 26.9801 31.4434 26.6784C31.4769 26.3433 31.4937 26.0249 31.4937 25.7233C31.4937 24.7849 31.3429 23.9471 31.0412 23.2098C30.7396 22.4725 30.2034 21.9866 29.4326 21.752C29.131 21.6514 28.7958 21.6012 28.4272 21.6012C28.2261 21.6012 28.0083 21.6347 27.7737 21.7017C27.5391 21.7352 27.2877 21.8358 27.0196 22.0033C26.7515 22.1374 26.4834 22.3552 26.2153 22.6568C25.9472 22.925 25.7629 23.1763 25.6623 23.4109C25.5953 23.545 25.4278 23.8466 25.1596 24.3158C24.8915 24.7514 24.6737 24.9525 24.5061 24.919C24.3721 24.8855 24.3051 24.7682 24.3051 24.5671C24.3051 24.4666 24.3386 24.3158 24.4056 24.1147C24.6067 23.4779 24.9921 22.9417 25.5618 22.506C26.1315 22.0369 26.7515 21.6682 27.4218 21.4001C28.0921 21.0985 28.645 20.9309 29.0807 20.8974C29.1812 20.8974 29.2818 20.8974 29.3823 20.8974C29.4829 20.8639 29.5666 20.8471 29.6337 20.8471C30.1699 20.8471 30.6558 20.9309 31.0915 21.0985C31.5607 21.2325 31.9293 21.4169 32.1974 21.6514C32.6331 21.9866 32.985 22.4223 33.2531 22.9585C33.5212 23.4612 33.6553 24.0979 33.6553 24.8687C33.6553 25.1033 33.6385 25.3547 33.605 25.6228C33.5715 25.8909 33.5212 26.159 33.4542 26.4271C33.3537 26.9633 33.2196 27.6503 33.052 28.4882C32.918 29.2925 32.7672 30.1303 32.5996 31.0017C32.4656 31.873 32.3483 32.6773 32.2477 33.4146C32.1807 34.1184 32.1472 34.6211 32.1472 34.9227C32.1472 35.2579 32.2477 35.6433 32.4488 36.0789C32.6834 36.4811 32.985 36.6822 33.3537 36.6822C33.5547 36.6822 33.7726 36.5816 34.0072 36.3806C34.2753 36.1795 34.5434 35.8443 34.8115 35.3752C34.9791 35.1071 35.1299 34.973 35.2639 34.973C35.4315 34.973 35.5153 35.0735 35.5153 35.2746C35.5153 35.5427 35.3812 35.8611 35.1131 36.2297C34.4764 37.1346 33.672 37.587 32.7001 37.587C31.8958 37.587 31.3261 37.2519 30.991 36.5816C30.4212 35.4757 30.1364 34.4871 30.1364 33.6157C30.1364 32.7108 30.1196 32.0909 30.0861 31.7557C29.9185 32.1579 29.6002 32.7946 29.131 33.666C28.6618 34.5038 28.1088 35.3919 27.4721 36.3303C26.8353 37.2351 26.165 38.006 25.4613 38.6427C24.7575 39.2795 24.104 39.5978 23.5007 39.5978ZM24.3051 38.0897C24.6402 38.0897 25.0256 37.9222 25.4613 37.587C25.9305 37.2519 26.4164 36.7324 26.9191 36.0287C27.5894 35.0568 28.2094 33.9676 28.7791 32.7611C29.3488 31.5546 29.8683 30.3817 30.3375 29.2422C29.9353 28.2703 29.4326 27.7844 28.8294 27.7844C28.2931 27.7844 27.7234 28.0693 27.1202 28.639C26.5169 29.2087 25.9472 29.8622 25.411 30.5995C24.7407 31.6049 24.2045 32.6103 23.8024 33.6157C23.4337 34.6211 23.2494 35.4757 23.2494 36.1795C23.2494 37.453 23.6013 38.0897 24.3051 38.0897ZM45.6722 40.6535C45.2365 40.6535 44.8511 40.3854 44.516 39.8492C44.1808 39.2795 44.0133 38.207 44.0133 36.6319C44.0133 35.3919 44.1138 34.0346 44.3149 32.56C44.516 31.0519 44.7338 29.5606 44.9684 28.086C45.2365 26.6114 45.4711 25.3044 45.6722 24.1649C45.8732 22.992 45.9738 22.1374 45.9738 21.6012C45.9738 20.6628 45.6889 20.1936 45.1192 20.1936C44.583 20.1936 44.03 20.4617 43.4603 20.9979C42.9241 21.5342 42.4046 22.1877 41.9019 22.9585C41.4327 23.7293 41.0138 24.4833 40.6452 25.2206C40.31 25.9244 40.0922 26.4439 39.9917 26.779C39.5225 28.086 39.1873 29.393 38.9863 30.7C38.7852 31.9736 38.6846 33.2973 38.6846 34.6714C38.6846 35.2411 38.7014 35.8276 38.7349 36.4308C38.8019 37.0341 38.8522 37.6541 38.8857 38.2908C38.9527 38.626 38.8522 39.0449 38.5841 39.5476C38.3495 40.0168 38.0646 40.2514 37.7295 40.2514C37.4949 40.2514 37.2938 40.1005 37.1263 39.7989C36.9587 39.4973 36.8414 39.2292 36.7744 38.9946C36.6403 38.5924 36.5398 38.1735 36.4728 37.7378C36.4057 37.2687 36.3387 36.8665 36.2717 36.5314C36.0371 35.1573 35.8192 33.7665 35.6182 32.359C35.4171 30.9179 35.1322 29.5271 34.7636 28.1865C34.663 27.8179 34.529 27.4325 34.3614 27.0303C34.2274 26.5947 34.0095 26.2428 33.7079 25.9747C33.6409 25.9076 33.5403 25.8406 33.4063 25.7736C33.2722 25.673 33.2052 25.5893 33.2052 25.5222C33.2052 25.3882 33.3895 25.3212 33.7582 25.3212C34.1603 25.3212 34.5625 25.5222 34.9647 25.9244C35.3668 26.3266 35.7355 26.8628 36.0706 27.533C36.4728 28.3709 36.8079 29.259 37.076 30.1973C37.3776 31.1357 37.6122 31.8898 37.7798 32.4595C37.9809 31.253 38.1987 30.1806 38.4333 29.2422C38.6679 28.4379 38.9863 27.4828 39.3884 26.3768C39.7906 25.2374 40.2933 24.1314 40.8965 23.059C41.4998 21.9531 42.2203 21.0482 43.0581 20.3444C43.896 19.6071 44.8678 19.2385 45.9738 19.2385C47.5824 19.2385 48.3867 20.1769 48.3867 22.0536C48.3867 23.0255 48.2192 24.0979 47.884 25.2709C47.5489 26.4103 47.1803 27.466 46.7781 28.4379C46.4095 29.4098 46.1581 30.0801 46.0241 30.4487C45.8565 30.9179 45.6722 31.5546 45.4711 32.359C45.3035 33.1633 45.1527 34.0011 45.0187 34.8725C44.9181 35.7438 44.8678 36.5481 44.8678 37.2854C44.8678 37.9222 44.9349 38.4584 45.0689 38.8941C45.2365 39.2962 45.4878 39.4973 45.823 39.4973C46.1581 39.4973 46.4597 39.3465 46.7278 39.0449C46.9959 38.7097 47.2138 38.4081 47.3813 38.14C47.5824 37.8719 47.683 37.8216 47.683 37.9892C47.75 38.4919 47.5657 39.0616 47.13 39.6984C46.7278 40.3351 46.2419 40.6535 45.6722 40.6535ZM51.0577 42.3627C50.2534 42.3627 49.6502 42.0108 49.248 41.307C48.8458 40.6368 48.6448 39.7822 48.6448 38.7432C48.6448 38.006 48.7956 37.0843 49.0972 35.9784C49.3988 34.8725 49.8177 33.7162 50.3539 32.5098C50.8902 31.3033 51.4934 30.1806 52.1637 29.1417C52.8339 28.0693 53.521 27.2147 54.2247 26.5779C54.962 25.9076 55.6826 25.5725 56.3863 25.5725C56.9561 25.5725 57.3582 25.7903 57.5928 26.226C57.8609 26.6282 57.995 27.0639 57.995 27.533C57.995 27.9352 57.9112 28.3038 57.7436 28.639C57.6096 28.9406 57.4085 29.0914 57.1404 29.0914C56.8723 29.0914 56.6712 28.9741 56.5372 28.7395C56.4366 28.4714 56.3361 28.2033 56.2355 27.9352C56.1685 27.6671 55.9842 27.533 55.6826 27.533C55.0793 27.533 54.4761 27.9184 53.8728 28.6892C53.2696 29.4601 52.7166 30.4319 52.2139 31.6049C51.7112 32.7779 51.3091 34.0011 51.0075 35.2746C50.7058 36.5146 50.555 37.6206 50.555 38.5924C50.555 39.2962 50.6388 39.8492 50.8064 40.2514C51.0075 40.687 51.3258 40.9049 51.7615 40.9049C52.3312 40.9049 52.901 40.553 53.4707 39.8492C54.0739 39.1119 54.6604 38.1735 55.2301 37.0341C55.7999 35.8611 56.3193 34.6379 56.7885 33.3644C57.2912 32.0909 57.7101 30.9011 58.0453 29.7952C58.4139 28.6557 58.6988 27.7509 58.8998 27.0806C59.168 24.7347 59.4863 22.372 59.855 19.9925C60.2571 17.6131 60.8436 15.3007 61.6144 13.0553C61.715 12.6866 61.8658 12.3683 62.0669 12.1001C62.3015 11.832 62.536 11.698 62.7706 11.698C63.0387 11.698 63.2566 11.8823 63.4241 12.251C63.6252 12.6196 63.7258 13.0385 63.7258 13.5077C63.7258 13.8764 63.6587 14.2618 63.5247 14.6639C63.3906 15.0661 63.2231 15.6023 63.022 16.2726C62.7874 17.0769 62.4858 18.1493 62.1171 19.4898C61.782 20.7969 61.4301 22.2882 61.0615 23.9639C60.6928 25.606 60.3744 27.3655 60.1063 29.2422C59.8717 31.0855 59.7544 32.9287 59.7544 34.7719C59.7544 36.1795 59.855 37.1681 60.0561 37.7378C60.2571 38.3076 60.5252 38.5924 60.8604 38.5924C61.229 38.5924 61.6312 38.3578 62.0669 37.8887C62.536 37.4195 62.9885 36.8497 63.4241 36.1795C63.8933 35.5092 64.3123 34.8389 64.6809 34.1687C65.0495 33.4649 65.3344 32.9119 65.5355 32.5098C65.9041 31.7725 66.189 31.4038 66.3901 31.4038C66.5241 31.4038 66.5912 31.5546 66.5912 31.8563C66.5912 32.0909 66.5409 32.3422 66.4403 32.6103C66.2393 33.046 66.1052 33.3811 66.0382 33.6157C65.9712 33.8168 65.8874 34.0179 65.7868 34.2189C65.7198 34.42 65.5522 34.7384 65.2841 35.1741C65.0495 35.5762 64.6809 36.1292 64.1782 36.833C63.6755 37.5033 63.1058 38.1233 62.469 38.693C61.8323 39.2292 61.1955 39.4973 60.5588 39.4973C59.922 39.4973 59.4361 39.2292 59.1009 38.693C58.7993 38.1568 58.5982 37.4697 58.4977 36.6319C58.4307 35.7606 58.3971 34.8725 58.3971 33.9676C58.3971 32.8617 58.4474 31.6887 58.548 30.4487C58.3134 31.253 57.995 32.2081 57.5928 33.3141C57.1907 34.3865 56.7382 35.4757 56.2355 36.5816C55.7328 37.6876 55.1966 38.693 54.6269 39.5978C54.1577 40.3351 53.6383 40.9719 53.0685 41.5081C52.4988 42.0778 51.8285 42.3627 51.0577 42.3627ZM66.2294 39.5978C65.6262 39.5978 65.1905 39.3465 64.9224 38.8438C64.6543 38.3076 64.5203 37.6876 64.5203 36.9838C64.5203 36.0789 64.6711 35.0233 64.9727 33.8168C65.3078 32.6103 65.7435 31.3703 66.2797 30.0968C66.8159 28.7898 67.4192 27.6001 68.0894 26.5276C68.7932 25.4217 69.5305 24.5336 70.3013 23.8633C71.0721 23.1595 71.8262 22.8077 72.5635 22.8077C73.2337 22.8077 73.8035 23.1093 74.2727 23.7125C74.7754 24.2822 75.0267 24.9358 75.0267 25.673C75.0267 26.1087 74.9597 26.4774 74.8256 26.779C74.6916 27.0471 74.5408 27.1811 74.3732 27.1811C74.2391 27.1811 74.1218 27.0806 74.0213 26.8795C73.6862 26.1087 73.3175 25.5558 72.9154 25.2206C72.5467 24.8855 72.1613 24.7179 71.7591 24.7179C71.0889 24.7179 70.4186 25.1033 69.7483 25.8741C69.1116 26.6114 68.5921 27.466 68.19 28.4379C67.8548 29.1752 67.5365 30.0633 67.2348 31.1022C66.9667 32.1076 66.7321 33.113 66.5311 34.1184C66.3635 35.0903 66.2797 35.8946 66.2797 36.5314C66.2797 37.6708 66.5478 38.2405 67.084 38.2405C67.7543 38.2405 68.6089 37.5033 69.6478 36.0287C70.4186 34.9562 71.1056 33.7162 71.7089 32.3087C72.3456 30.9011 72.8818 29.6779 73.3175 28.639C73.4851 28.3038 73.6694 28.086 73.8705 27.9855C74.0716 27.8849 74.2559 27.8347 74.4235 27.8347C74.8256 27.8347 75.077 28.0022 75.1775 28.3374C75.3116 28.6725 75.3786 28.9574 75.3786 29.1919C75.3786 30.0633 75.2948 30.8509 75.1272 31.5546C74.9597 32.2249 74.8759 33.046 74.8759 34.0179C74.8759 34.7216 74.9262 35.3752 75.0267 35.9784C75.1608 36.5481 75.3786 36.833 75.6802 36.833C76.0489 36.833 76.518 36.3638 77.0878 35.4254C77.2218 35.1573 77.4229 35.0233 77.691 35.0233C77.9926 35.0233 78.1434 35.1741 78.1434 35.4757C78.1434 35.9114 77.8418 36.3806 77.2386 36.8833C76.6353 37.3524 76.0321 37.587 75.4289 37.587C74.6245 37.587 74.0548 37.2519 73.7197 36.5816C73.15 35.4757 72.8651 34.4871 72.8651 33.6157C72.8651 32.7108 72.8483 32.0909 72.8148 31.7557C72.6473 32.1579 72.3289 32.7946 71.8597 33.666C71.3905 34.5038 70.8375 35.3919 70.2008 36.3303C69.564 37.2351 68.8938 38.006 68.19 38.6427C67.4862 39.2795 66.8327 39.5978 66.2294 39.5978ZM77.927 61.1134C76.62 61.1134 75.5644 60.7615 74.76 60.0577C73.9557 59.3875 73.5536 58.4826 73.5536 57.3432C73.5536 56.7734 73.6709 56.1367 73.9054 55.4329C74.14 54.7626 74.5087 54.0588 75.0114 53.3216C75.7822 52.1821 76.8881 50.9589 78.3292 49.6518C79.8038 48.3783 81.5968 47.1719 83.7081 46.0324C85.8529 44.9265 88.2994 44.0886 91.0475 43.5189C91.081 43.1503 91.0978 42.7649 91.0978 42.3627C91.0978 41.994 91.0978 41.6254 91.0978 41.2568C91.0978 38.5422 90.9135 36.0789 90.5448 33.8671C90.1762 31.6217 89.7573 29.6946 89.2881 28.086C87.9475 31.4038 86.7578 34.1687 85.7189 36.3806C84.68 38.5589 84.1103 40.3854 84.0097 41.86C83.9762 42.0946 83.8254 42.3459 83.5573 42.614C83.3227 42.9157 83.0546 43.0665 82.753 43.0665C82.5184 43.0665 82.2838 42.8989 82.0492 42.5638C81.8481 42.2622 81.7476 41.7427 81.7476 41.0054C81.7476 40.2346 81.8313 39.2292 81.9989 37.9892C82.1665 36.7492 82.2503 35.5595 82.2503 34.42C82.2503 33.3476 82.0995 32.4092 81.7978 31.6049C81.4962 30.8006 80.9097 30.3817 80.0384 30.3482C79.3346 30.3482 78.6811 30.6833 78.0779 31.3536C77.9438 31.4876 77.8433 31.5546 77.7762 31.5546C77.6757 31.5546 77.6254 31.4709 77.6254 31.3033C77.6254 31.1357 77.6757 30.9514 77.7762 30.7503C78.0443 30.0801 78.5303 29.6109 79.2341 29.3428C79.9714 29.0747 80.5746 28.9406 81.0438 28.9406C82.2503 28.9406 83.0713 29.2757 83.507 29.946C83.9762 30.5828 84.2108 31.4373 84.2108 32.5098C84.2108 33.4817 84.0767 34.6044 83.8086 35.8779C83.574 37.1179 83.3227 38.4249 83.0546 39.7989C83.7249 38.5589 84.5794 36.833 85.6184 34.6211C86.6573 32.4092 87.7967 29.9125 89.0367 27.1309L88.5843 25.8239V25.673C88.5843 25.3379 88.6848 25.0866 88.8859 24.919C89.1205 24.7514 89.3551 24.6676 89.5897 24.6676C89.7908 24.6676 89.9918 24.7179 90.1929 24.8185C90.394 24.919 90.5281 25.0698 90.5951 25.2709C90.9972 26.1757 91.3324 27.4157 91.6005 28.9909C91.9021 30.566 92.1199 32.2752 92.254 34.1184C92.4216 35.9281 92.5053 37.7211 92.5053 39.4973C92.5053 40.8378 92.4551 42.0946 92.3545 43.2676C93.1924 43.1 94.0302 42.9827 94.868 42.9157C95.7059 42.8486 96.594 42.7816 97.5323 42.7146H97.7334C98.035 42.7146 98.1859 42.7816 98.1859 42.9157C98.1859 43.1838 97.834 43.3513 97.1302 43.4184C96.3259 43.4854 95.5048 43.5692 94.667 43.6697C93.8626 43.8038 93.0416 43.9713 92.2037 44.1724C91.4999 48.0264 90.394 51.1097 88.8859 53.4221C87.4113 55.768 85.8865 57.5275 84.3113 58.7004C83.1719 59.5383 82.0492 60.1415 80.9432 60.5102C79.8708 60.9123 78.8654 61.1134 77.927 61.1134ZM77.5249 60.0577C78.0946 60.0577 78.7481 59.9404 79.4854 59.7058C80.2562 59.4712 81.0605 59.1026 81.8984 58.5999C84.5794 57.0248 86.6573 55.0307 88.1319 52.6178C89.6064 50.2383 90.5448 47.5237 90.947 44.474C89.1708 44.9432 87.3778 45.6135 85.5681 46.4848C83.7584 47.3897 82.0659 48.4286 80.4908 49.6016C78.9492 50.8081 77.6254 52.1318 76.5195 53.5729C75.9498 54.3102 75.5308 55.014 75.2627 55.6842C74.9946 56.3545 74.8606 56.9745 74.8606 57.5442C74.8606 58.315 75.0952 58.9183 75.5644 59.354C76.0335 59.8231 76.6871 60.0577 77.5249 60.0577ZM96.6173 39.5978C96.014 39.5978 95.5784 39.3465 95.3103 38.8438C95.0421 38.3076 94.9081 37.6876 94.9081 36.9838C94.9081 36.0789 95.0589 35.0233 95.3605 33.8168C95.6957 32.6103 96.1313 31.3703 96.6675 30.0968C97.2038 28.7898 97.807 27.6001 98.4773 26.5276C99.181 25.4217 99.9183 24.5336 100.689 23.8633C101.46 23.1595 102.214 22.8077 102.951 22.8077C103.622 22.8077 104.191 23.1093 104.66 23.7125C105.163 24.2822 105.415 24.9358 105.415 25.673C105.415 26.1087 105.347 26.4774 105.213 26.779C105.079 27.0471 104.929 27.1811 104.761 27.1811C104.627 27.1811 104.51 27.0806 104.409 26.8795C104.074 26.1087 103.705 25.5558 103.303 25.2206C102.935 24.8855 102.549 24.7179 102.147 24.7179C101.477 24.7179 100.806 25.1033 100.136 25.8741C99.4994 26.6114 98.98 27.466 98.5778 28.4379C98.2427 29.1752 97.9243 30.0633 97.6227 31.1022C97.3546 32.1076 97.12 33.113 96.9189 34.1184C96.7513 35.0903 96.6675 35.8946 96.6675 36.5314C96.6675 37.6708 96.9357 38.2405 97.4719 38.2405C98.1421 38.2405 98.9967 37.5033 100.036 36.0287C100.806 34.9562 101.493 33.7162 102.097 32.3087C102.733 30.9011 103.27 29.6779 103.705 28.639C103.873 28.3038 104.057 28.086 104.258 27.9855C104.459 27.8849 104.644 27.8347 104.811 27.8347C105.213 27.8347 105.465 28.0022 105.565 28.3374C105.699 28.6725 105.766 28.9574 105.766 29.1919C105.766 30.0633 105.683 30.8509 105.515 31.5546C105.347 32.2249 105.264 33.046 105.264 34.0179C105.264 34.7216 105.314 35.3752 105.415 35.9784C105.549 36.5481 105.766 36.833 106.068 36.833C106.437 36.833 106.906 36.3638 107.476 35.4254C107.61 35.1573 107.811 35.0233 108.079 35.0233C108.38 35.0233 108.531 35.1741 108.531 35.4757C108.531 35.9114 108.23 36.3806 107.626 36.8833C107.023 37.3524 106.42 37.587 105.817 37.587C105.012 37.587 104.443 37.2519 104.108 36.5816C103.538 35.4757 103.253 34.4871 103.253 33.6157C103.253 32.7108 103.236 32.0909 103.203 31.7557C103.035 32.1579 102.717 32.7946 102.248 33.666C101.778 34.5038 101.225 35.3919 100.589 36.3303C99.9519 37.2351 99.2816 38.006 98.5778 38.6427C97.874 39.2795 97.2205 39.5978 96.6173 39.5978ZM114.749 42.5135C113.677 42.5135 112.856 42.0108 112.286 41.0054C111.716 40.0335 111.432 38.9611 111.432 37.7881C111.432 36.6822 111.616 35.526 111.985 34.3195C112.353 33.113 112.806 31.9233 113.342 30.7503C113.912 29.5774 114.498 28.5049 115.101 27.533C114.498 27.7676 113.928 27.8849 113.392 27.8849C113.124 27.8849 112.889 27.8514 112.688 27.7844C112.487 27.7174 112.32 27.6671 112.186 27.6336C112.018 28.0357 111.716 28.706 111.281 29.6444C110.879 30.5828 110.443 31.5714 109.974 32.6103C109.538 33.6157 109.153 34.4703 108.818 35.1741C108.281 36.3135 107.812 36.8833 107.41 36.8833C107.209 36.8833 107.108 36.7492 107.108 36.4811C107.108 36.28 107.192 36.0119 107.36 35.6768C108.131 34.2357 108.851 32.8114 109.521 31.4038C110.225 29.9963 110.862 28.639 111.432 27.332C111.365 27.1644 111.298 26.9466 111.231 26.6784C111.163 26.3768 111.13 26.0585 111.13 25.7233C111.13 25.3547 111.163 24.9693 111.231 24.5671C111.331 24.1314 111.465 23.7125 111.633 23.3104C111.733 23.0758 111.918 22.7406 112.186 22.305C112.454 21.8358 112.755 21.4169 113.091 21.0482C113.426 20.646 113.744 20.445 114.046 20.445C114.615 20.445 114.9 20.7466 114.9 21.3498C114.9 21.9196 114.716 22.5731 114.347 23.3104C114.012 24.0477 113.66 24.7347 113.292 25.3714C112.923 25.9747 112.739 26.4271 112.739 26.7287C112.739 26.9968 112.873 27.1309 113.141 27.1309C113.509 27.1309 113.962 26.9466 114.498 26.5779C115.068 26.1757 115.52 25.8071 115.855 25.472C116.023 25.3044 116.291 25.0531 116.66 24.7179C117.028 24.3493 117.38 24.1649 117.715 24.1649C118.05 24.1649 118.268 24.2655 118.369 24.4666C118.503 24.6676 118.57 24.9022 118.57 25.1703C118.57 25.472 118.436 25.8574 118.168 26.3266C117.9 26.7622 117.581 27.1979 117.213 27.6336C116.878 28.0693 116.593 28.4379 116.358 28.7395C115.889 29.4433 115.353 30.3314 114.749 31.4038C114.146 32.4763 113.627 33.6325 113.191 34.8725C112.755 36.0789 112.538 37.2351 112.538 38.3411C112.538 39.0784 112.722 39.8492 113.091 40.6535C113.459 41.4578 113.962 41.86 114.599 41.86C115.168 41.86 115.772 41.5584 116.408 40.9551C117.079 40.3519 117.699 39.6314 118.268 38.7935C118.872 37.9557 119.391 37.1514 119.827 36.3806C120.296 35.6098 120.614 35.0735 120.782 34.7719C120.849 34.6044 120.966 34.4033 121.134 34.1687C121.301 33.9006 121.502 33.7665 121.737 33.7665C121.938 33.7665 122.039 33.8671 122.039 34.0681C122.039 34.2357 121.988 34.4368 121.888 34.6714C121.821 34.8725 121.754 35.0568 121.687 35.2243C121.385 35.9281 121.016 36.6654 120.581 37.4362C120.145 38.207 119.843 38.7265 119.676 38.9946C119.207 39.7654 118.503 40.5362 117.565 41.307C116.66 42.1113 115.721 42.5135 114.749 42.5135ZM122.734 39.5978C122.131 39.5978 121.695 39.3465 121.427 38.8438C121.159 38.3076 121.025 37.6876 121.025 36.9838C121.025 36.0789 121.176 35.0233 121.477 33.8168C121.812 32.6103 122.248 31.3703 122.784 30.0968C123.321 28.7898 123.924 27.6001 124.594 26.5276C125.298 25.4217 126.035 24.5336 126.806 23.8633C127.577 23.1595 128.331 22.8077 129.068 22.8077C129.738 22.8077 130.308 23.1093 130.777 23.7125C131.28 24.2822 131.531 24.9358 131.531 25.673C131.531 26.1087 131.464 26.4774 131.33 26.779C131.196 27.0471 131.045 27.1811 130.878 27.1811C130.744 27.1811 130.627 27.0806 130.526 26.8795C130.191 26.1087 129.822 25.5558 129.42 25.2206C129.051 24.8855 128.666 24.7179 128.264 24.7179C127.594 24.7179 126.923 25.1033 126.253 25.8741C125.616 26.6114 125.097 27.466 124.695 28.4379C124.36 29.1752 124.041 30.0633 123.74 31.1022C123.471 32.1076 123.237 33.113 123.036 34.1184C122.868 35.0903 122.784 35.8946 122.784 36.5314C122.784 37.6708 123.052 38.2405 123.589 38.2405C124.259 38.2405 125.114 37.5033 126.152 36.0287C126.923 34.9562 127.61 33.7162 128.214 32.3087C128.85 30.9011 129.387 29.6779 129.822 28.639C129.99 28.3038 130.174 28.086 130.375 27.9855C130.576 27.8849 130.761 27.8347 130.928 27.8347C131.33 27.8347 131.582 28.0022 131.682 28.3374C131.816 28.6725 131.883 28.9574 131.883 29.1919C131.883 30.0633 131.799 30.8509 131.632 31.5546C131.464 32.2249 131.381 33.046 131.381 34.0179C131.381 34.7216 131.431 35.3752 131.531 35.9784C131.665 36.5481 131.883 36.833 132.185 36.833C132.554 36.833 133.023 36.3638 133.592 35.4254C133.726 35.1573 133.928 35.0233 134.196 35.0233C134.497 35.0233 134.648 35.1741 134.648 35.4757C134.648 35.9114 134.346 36.3806 133.743 36.8833C133.14 37.3524 132.537 37.587 131.934 37.587C131.129 37.587 130.559 37.2519 130.224 36.5816C129.655 35.4757 129.37 34.4871 129.37 33.6157C129.37 32.7108 129.353 32.0909 129.319 31.7557C129.152 32.1579 128.834 32.7946 128.364 33.666C127.895 34.5038 127.342 35.3919 126.705 36.3303C126.069 37.2351 125.398 38.006 124.695 38.6427C123.991 39.2795 123.337 39.5978 122.734 39.5978Z" fill="white"/>
</svg>
