<svg width="155" height="66" viewBox="0 0 155 66" fill="none" xmlns="http://www.w3.org/2000/svg">
<path d="M0 23H50C55.5228 23 60 27.4772 60 33V47H10C4.47715 47 0 42.5228 0 37V23Z" fill="#6F7D5C"/>
<path d="M37.2983 57.4724C36.1588 57.4724 35.1032 57.0702 34.1313 56.2659C33.1594 55.4616 32.4891 54.4394 32.1205 53.1994C31.9864 52.7302 31.8859 52.2275 31.8189 51.6913C31.7853 51.1886 31.7686 50.6524 31.7686 50.0827C31.7686 48.273 32.0032 46.2119 32.4724 43.8995C32.9751 41.587 33.6118 39.1406 34.3826 36.56C35.1869 33.946 36.0583 31.332 36.9967 28.7179C37.9685 26.0704 38.9069 23.5234 39.8118 21.0769C40.7502 18.5969 41.6047 16.318 42.3756 14.2402C43.1464 12.1288 43.7496 10.3526 44.1853 8.91154C44.4199 8.17425 44.5372 7.571 44.5372 7.10182C44.5372 6.49858 44.3361 6.19696 43.9339 6.19696C43.4312 6.19696 42.6604 6.6829 41.6215 7.65479C40.5826 8.62668 39.3929 9.95045 38.0523 11.6261C36.7118 13.3018 35.321 15.2456 33.8799 17.4574C32.4388 19.6693 31.0648 22.0153 29.7578 24.4952C28.4508 26.9752 27.3113 29.4887 26.3394 32.0357C25.3675 34.5828 24.6638 37.046 24.2281 39.4254C24.1946 39.66 24.1611 40.0287 24.1275 40.5314C24.094 41.0341 24.0102 41.4865 23.8762 41.8887C23.7757 42.2908 23.5578 42.4919 23.2227 42.4919C22.4854 42.4584 21.9659 42.0897 21.6643 41.386C21.3962 40.6822 21.2119 40.0287 21.1113 39.4254C20.8432 37.6492 20.7092 35.5714 20.7092 33.1919C20.7092 31.2817 20.793 29.3044 20.9605 27.2601C21.1281 25.2158 21.3627 23.272 21.6643 21.4288C21.9659 19.5855 22.3178 18.0272 22.72 16.7537C22.9881 15.9493 23.3567 15.2288 23.8259 14.592C24.3286 13.9218 24.7811 13.5866 25.1832 13.5866C25.4178 13.5866 25.6021 13.7542 25.7362 14.0893C25.9037 14.4245 25.9708 15.0277 25.9373 15.8991C25.9373 16.2677 25.7697 16.9715 25.4346 18.0104C25.1329 19.0158 24.7643 20.3228 24.3286 21.9315C23.9265 23.5401 23.5746 25.4001 23.273 27.5114C22.9713 29.6228 22.8205 31.952 22.8205 34.499C22.8205 35.7054 22.8708 36.9622 22.9713 38.2692C23.273 37.3308 23.7254 36.0238 24.3286 34.3482C24.9654 32.6725 25.7362 30.779 26.641 28.6676C27.5794 26.5563 28.6183 24.3779 29.7578 22.1325C30.9307 19.8536 32.1875 17.6418 33.528 15.4969C34.8686 13.3521 36.2761 11.4083 37.7507 9.66559C39.2253 7.9229 40.7334 6.53209 42.275 5.49318C43.0458 4.99048 43.8501 4.73913 44.688 4.73913C45.5928 4.73913 46.3636 5.02399 47.0004 5.59372C47.6707 6.16344 47.9723 6.96776 47.9053 8.00668C47.8382 9.41424 47.4863 10.8386 46.8496 12.2796C46.2463 13.6872 45.5258 15.0612 44.688 16.4018C43.8837 17.7423 43.1296 19.0326 42.4258 20.2726C41.4539 22.0488 40.4653 24.0261 39.4599 26.2044C38.488 28.3828 37.5831 30.6617 36.7453 33.0411C35.941 35.4206 35.2875 37.8168 34.7848 40.2297C34.2821 42.6427 34.0307 44.9719 34.0307 47.2173C34.0307 49.094 34.2653 50.9205 34.7345 52.6967C35.1032 54.0037 35.5556 54.9086 36.0918 55.4113C36.6615 55.914 37.2145 56.1653 37.7507 56.1653C38.354 56.1653 38.9069 55.9978 39.4096 55.6626C39.9458 55.3275 40.3648 54.9589 40.6664 54.5567C41.0015 54.1881 41.1523 53.9702 41.1188 53.9032C41.1858 53.8697 41.2529 53.8529 41.3199 53.8529C41.5545 53.8529 41.6047 54.0037 41.4707 54.3054C41.3702 54.6405 41.2193 54.9756 41.0183 55.3108C40.8172 55.6794 40.6664 55.914 40.5658 56.0145C40.0631 56.5172 39.5269 56.8859 38.9572 57.1205C38.421 57.3551 37.868 57.4724 37.2983 57.4724ZM43.5007 43.5978C42.9645 43.5978 42.5121 43.313 42.1434 42.7432C41.8753 42.2741 41.7413 41.7211 41.7413 41.0843C41.7413 40.1795 41.9424 39.1573 42.3445 38.0179C42.7467 36.8784 43.2829 35.7725 43.9532 34.7C44.6569 33.6276 45.4278 32.7228 46.2656 31.9855C47.1369 31.2147 48.025 30.7622 48.9299 30.6282C49.265 30.5947 49.6672 30.6784 50.1364 30.8795C50.6056 31.0806 50.991 31.332 51.2926 31.6336C51.3596 31.2984 51.4099 30.9801 51.4434 30.6784C51.4769 30.3433 51.4937 30.0249 51.4937 29.7233C51.4937 28.7849 51.3429 27.9471 51.0412 27.2098C50.7396 26.4725 50.2034 25.9866 49.4326 25.752C49.131 25.6514 48.7958 25.6012 48.4272 25.6012C48.2261 25.6012 48.0083 25.6347 47.7737 25.7017C47.5391 25.7352 47.2877 25.8358 47.0196 26.0033C46.7515 26.1374 46.4834 26.3552 46.2153 26.6568C45.9472 26.925 45.7629 27.1763 45.6623 27.4109C45.5953 27.545 45.4278 27.8466 45.1596 28.3158C44.8915 28.7514 44.6737 28.9525 44.5061 28.919C44.3721 28.8855 44.3051 28.7682 44.3051 28.5671C44.3051 28.4666 44.3386 28.3158 44.4056 28.1147C44.6067 27.4779 44.9921 26.9417 45.5618 26.506C46.1315 26.0369 46.7515 25.6682 47.4218 25.4001C48.0921 25.0985 48.645 24.9309 49.0807 24.8974C49.1812 24.8974 49.2818 24.8974 49.3823 24.8974C49.4829 24.8639 49.5666 24.8471 49.6337 24.8471C50.1699 24.8471 50.6558 24.9309 51.0915 25.0985C51.5607 25.2325 51.9293 25.4169 52.1974 25.6514C52.6331 25.9866 52.985 26.4223 53.2531 26.9585C53.5212 27.4612 53.6553 28.0979 53.6553 28.8687C53.6553 29.1033 53.6385 29.3547 53.605 29.6228C53.5715 29.8909 53.5212 30.159 53.4542 30.4271C53.3537 30.9633 53.2196 31.6503 53.052 32.4882C52.918 33.2925 52.7672 34.1303 52.5996 35.0017C52.4656 35.873 52.3483 36.6773 52.2477 37.4146C52.1807 38.1184 52.1472 38.6211 52.1472 38.9227C52.1472 39.2579 52.2477 39.6433 52.4488 40.0789C52.6834 40.4811 52.985 40.6822 53.3537 40.6822C53.5547 40.6822 53.7726 40.5816 54.0072 40.3806C54.2753 40.1795 54.5434 39.8443 54.8115 39.3752C54.9791 39.1071 55.1299 38.973 55.2639 38.973C55.4315 38.973 55.5153 39.0735 55.5153 39.2746C55.5153 39.5427 55.3812 39.8611 55.1131 40.2297C54.4764 41.1346 53.672 41.587 52.7001 41.587C51.8958 41.587 51.3261 41.2519 50.991 40.5816C50.4212 39.4757 50.1364 38.4871 50.1364 37.6157C50.1364 36.7108 50.1196 36.0909 50.0861 35.7557C49.9185 36.1579 49.6002 36.7946 49.131 37.666C48.6618 38.5038 48.1088 39.3919 47.4721 40.3303C46.8353 41.2351 46.165 42.006 45.4613 42.6427C44.7575 43.2795 44.104 43.5978 43.5007 43.5978ZM44.3051 42.0897C44.6402 42.0897 45.0256 41.9222 45.4613 41.587C45.9305 41.2519 46.4164 40.7324 46.9191 40.0287C47.5894 39.0568 48.2094 37.9676 48.7791 36.7611C49.3488 35.5546 49.8683 34.3817 50.3375 33.2422C49.9353 32.2703 49.4326 31.7844 48.8294 31.7844C48.2931 31.7844 47.7234 32.0693 47.1202 32.639C46.5169 33.2087 45.9472 33.8622 45.411 34.5995C44.7407 35.6049 44.2045 36.6103 43.8024 37.6157C43.4337 38.6211 43.2494 39.4757 43.2494 40.1795C43.2494 41.453 43.6013 42.0897 44.3051 42.0897ZM65.6722 44.6535C65.2365 44.6535 64.8511 44.3854 64.516 43.8492C64.1808 43.2795 64.0133 42.207 64.0133 40.6319C64.0133 39.3919 64.1138 38.0346 64.3149 36.56C64.516 35.0519 64.7338 33.5606 64.9684 32.086C65.2365 30.6114 65.4711 29.3044 65.6722 28.1649C65.8732 26.992 65.9738 26.1374 65.9738 25.6012C65.9738 24.6628 65.6889 24.1936 65.1192 24.1936C64.583 24.1936 64.03 24.4617 63.4603 24.9979C62.9241 25.5342 62.4046 26.1877 61.9019 26.9585C61.4327 27.7293 61.0138 28.4833 60.6452 29.2206C60.31 29.9244 60.0922 30.4439 59.9917 30.779C59.5225 32.086 59.1873 33.393 58.9863 34.7C58.7852 35.9736 58.6846 37.2973 58.6846 38.6714C58.6846 39.2411 58.7014 39.8276 58.7349 40.4308C58.8019 41.0341 58.8522 41.6541 58.8857 42.2908C58.9527 42.626 58.8522 43.0449 58.5841 43.5476C58.3495 44.0168 58.0646 44.2514 57.7295 44.2514C57.4949 44.2514 57.2938 44.1005 57.1263 43.7989C56.9587 43.4973 56.8414 43.2292 56.7744 42.9946C56.6403 42.5924 56.5398 42.1735 56.4728 41.7378C56.4057 41.2687 56.3387 40.8665 56.2717 40.5314C56.0371 39.1573 55.8192 37.7665 55.6182 36.359C55.4171 34.9179 55.1322 33.5271 54.7636 32.1865C54.663 31.8179 54.529 31.4325 54.3614 31.0303C54.2274 30.5947 54.0095 30.2428 53.7079 29.9747C53.6409 29.9076 53.5403 29.8406 53.4063 29.7736C53.2722 29.673 53.2052 29.5893 53.2052 29.5222C53.2052 29.3882 53.3895 29.3212 53.7582 29.3212C54.1603 29.3212 54.5625 29.5222 54.9647 29.9244C55.3668 30.3266 55.7355 30.8628 56.0706 31.533C56.4728 32.3709 56.8079 33.259 57.076 34.1973C57.3776 35.1357 57.6122 35.8898 57.7798 36.4595C57.9809 35.253 58.1987 34.1806 58.4333 33.2422C58.6679 32.4379 58.9863 31.4828 59.3884 30.3768C59.7906 29.2374 60.2933 28.1314 60.8965 27.059C61.4998 25.9531 62.2203 25.0482 63.0581 24.3444C63.896 23.6071 64.8678 23.2385 65.9738 23.2385C67.5824 23.2385 68.3867 24.1769 68.3867 26.0536C68.3867 27.0255 68.2192 28.0979 67.884 29.2709C67.5489 30.4103 67.1803 31.466 66.7781 32.4379C66.4095 33.4098 66.1581 34.0801 66.0241 34.4487C65.8565 34.9179 65.6722 35.5546 65.4711 36.359C65.3035 37.1633 65.1527 38.0011 65.0187 38.8725C64.9181 39.7438 64.8678 40.5481 64.8678 41.2854C64.8678 41.9222 64.9349 42.4584 65.0689 42.8941C65.2365 43.2962 65.4878 43.4973 65.823 43.4973C66.1581 43.4973 66.4597 43.3465 66.7278 43.0449C66.9959 42.7097 67.2138 42.4081 67.3813 42.14C67.5824 41.8719 67.683 41.8216 67.683 41.9892C67.75 42.4919 67.5657 43.0616 67.13 43.6984C66.7278 44.3351 66.2419 44.6535 65.6722 44.6535ZM71.0577 46.3627C70.2534 46.3627 69.6502 46.0108 69.248 45.307C68.8458 44.6368 68.6448 43.7822 68.6448 42.7432C68.6448 42.006 68.7956 41.0843 69.0972 39.9784C69.3988 38.8725 69.8177 37.7162 70.3539 36.5098C70.8902 35.3033 71.4934 34.1806 72.1637 33.1417C72.8339 32.0693 73.521 31.2147 74.2247 30.5779C74.962 29.9076 75.6826 29.5725 76.3863 29.5725C76.9561 29.5725 77.3582 29.7903 77.5928 30.226C77.8609 30.6282 77.995 31.0639 77.995 31.533C77.995 31.9352 77.9112 32.3038 77.7436 32.639C77.6096 32.9406 77.4085 33.0914 77.1404 33.0914C76.8723 33.0914 76.6712 32.9741 76.5372 32.7395C76.4366 32.4714 76.3361 32.2033 76.2355 31.9352C76.1685 31.6671 75.9842 31.533 75.6826 31.533C75.0793 31.533 74.4761 31.9184 73.8728 32.6892C73.2696 33.4601 72.7166 34.4319 72.2139 35.6049C71.7112 36.7779 71.3091 38.0011 71.0075 39.2746C70.7058 40.5146 70.555 41.6206 70.555 42.5924C70.555 43.2962 70.6388 43.8492 70.8064 44.2514C71.0075 44.687 71.3258 44.9049 71.7615 44.9049C72.3312 44.9049 72.901 44.553 73.4707 43.8492C74.0739 43.1119 74.6604 42.1735 75.2301 41.0341C75.7999 39.8611 76.3193 38.6379 76.7885 37.3644C77.2912 36.0909 77.7101 34.9011 78.0453 33.7952C78.4139 32.6557 78.6988 31.7509 78.8998 31.0806C79.168 28.7347 79.4863 26.372 79.855 23.9925C80.2571 21.6131 80.8436 19.3007 81.6144 17.0553C81.715 16.6866 81.8658 16.3683 82.0669 16.1001C82.3015 15.832 82.536 15.698 82.7706 15.698C83.0387 15.698 83.2566 15.8823 83.4241 16.251C83.6252 16.6196 83.7258 17.0385 83.7258 17.5077C83.7258 17.8764 83.6587 18.2618 83.5247 18.6639C83.3906 19.0661 83.2231 19.6023 83.022 20.2726C82.7874 21.0769 82.4858 22.1493 82.1171 23.4898C81.782 24.7969 81.4301 26.2882 81.0615 27.9639C80.6928 29.606 80.3744 31.3655 80.1063 33.2422C79.8717 35.0855 79.7544 36.9287 79.7544 38.7719C79.7544 40.1795 79.855 41.1681 80.0561 41.7378C80.2571 42.3076 80.5252 42.5924 80.8604 42.5924C81.229 42.5924 81.6312 42.3578 82.0669 41.8887C82.536 41.4195 82.9885 40.8497 83.4241 40.1795C83.8933 39.5092 84.3123 38.8389 84.6809 38.1687C85.0495 37.4649 85.3344 36.9119 85.5355 36.5098C85.9041 35.7725 86.189 35.4038 86.3901 35.4038C86.5241 35.4038 86.5912 35.5546 86.5912 35.8563C86.5912 36.0909 86.5409 36.3422 86.4403 36.6103C86.2393 37.046 86.1052 37.3811 86.0382 37.6157C85.9712 37.8168 85.8874 38.0179 85.7868 38.2189C85.7198 38.42 85.5522 38.7384 85.2841 39.1741C85.0495 39.5762 84.6809 40.1292 84.1782 40.833C83.6755 41.5033 83.1058 42.1233 82.469 42.693C81.8323 43.2292 81.1955 43.4973 80.5588 43.4973C79.922 43.4973 79.4361 43.2292 79.1009 42.693C78.7993 42.1568 78.5982 41.4697 78.4977 40.6319C78.4307 39.7606 78.3971 38.8725 78.3971 37.9676C78.3971 36.8617 78.4474 35.6887 78.548 34.4487C78.3134 35.253 77.995 36.2081 77.5928 37.3141C77.1907 38.3865 76.7382 39.4757 76.2355 40.5816C75.7328 41.6876 75.1966 42.693 74.6269 43.5978C74.1577 44.3351 73.6383 44.9719 73.0685 45.5081C72.4988 46.0778 71.8285 46.3627 71.0577 46.3627ZM86.2294 43.5978C85.6262 43.5978 85.1905 43.3465 84.9224 42.8438C84.6543 42.3076 84.5203 41.6876 84.5203 40.9838C84.5203 40.0789 84.6711 39.0233 84.9727 37.8168C85.3078 36.6103 85.7435 35.3703 86.2797 34.0968C86.8159 32.7898 87.4192 31.6001 88.0894 30.5276C88.7932 29.4217 89.5305 28.5336 90.3013 27.8633C91.0721 27.1595 91.8262 26.8077 92.5635 26.8077C93.2337 26.8077 93.8035 27.1093 94.2727 27.7125C94.7754 28.2822 95.0267 28.9358 95.0267 29.673C95.0267 30.1087 94.9597 30.4774 94.8256 30.779C94.6916 31.0471 94.5408 31.1811 94.3732 31.1811C94.2391 31.1811 94.1218 31.0806 94.0213 30.8795C93.6862 30.1087 93.3175 29.5558 92.9154 29.2206C92.5467 28.8855 92.1613 28.7179 91.7591 28.7179C91.0889 28.7179 90.4186 29.1033 89.7483 29.8741C89.1116 30.6114 88.5921 31.466 88.19 32.4379C87.8548 33.1752 87.5365 34.0633 87.2348 35.1022C86.9667 36.1076 86.7321 37.113 86.5311 38.1184C86.3635 39.0903 86.2797 39.8946 86.2797 40.5314C86.2797 41.6708 86.5478 42.2405 87.084 42.2405C87.7543 42.2405 88.6089 41.5033 89.6478 40.0287C90.4186 38.9562 91.1056 37.7162 91.7089 36.3087C92.3456 34.9011 92.8818 33.6779 93.3175 32.639C93.4851 32.3038 93.6694 32.086 93.8705 31.9855C94.0716 31.8849 94.2559 31.8347 94.4235 31.8347C94.8256 31.8347 95.077 32.0022 95.1775 32.3374C95.3116 32.6725 95.3786 32.9574 95.3786 33.1919C95.3786 34.0633 95.2948 34.8509 95.1272 35.5546C94.9597 36.2249 94.8759 37.046 94.8759 38.0179C94.8759 38.7216 94.9262 39.3752 95.0267 39.9784C95.1608 40.5481 95.3786 40.833 95.6802 40.833C96.0489 40.833 96.518 40.3638 97.0878 39.4254C97.2218 39.1573 97.4229 39.0233 97.691 39.0233C97.9926 39.0233 98.1434 39.1741 98.1434 39.4757C98.1434 39.9114 97.8418 40.3806 97.2386 40.8833C96.6353 41.3524 96.0321 41.587 95.4289 41.587C94.6245 41.587 94.0548 41.2519 93.7197 40.5816C93.15 39.4757 92.8651 38.4871 92.8651 37.6157C92.8651 36.7108 92.8483 36.0909 92.8148 35.7557C92.6473 36.1579 92.3289 36.7946 91.8597 37.666C91.3905 38.5038 90.8375 39.3919 90.2008 40.3303C89.564 41.2351 88.8938 42.006 88.19 42.6427C87.4862 43.2795 86.8327 43.5978 86.2294 43.5978ZM97.927 65.1134C96.62 65.1134 95.5644 64.7615 94.76 64.0577C93.9557 63.3875 93.5536 62.4826 93.5536 61.3432C93.5536 60.7734 93.6709 60.1367 93.9054 59.4329C94.14 58.7626 94.5087 58.0588 95.0114 57.3216C95.7822 56.1821 96.8881 54.9589 98.3292 53.6518C99.8038 52.3783 101.597 51.1719 103.708 50.0324C105.853 48.9265 108.299 48.0886 111.048 47.5189C111.081 47.1503 111.098 46.7649 111.098 46.3627C111.098 45.994 111.098 45.6254 111.098 45.2568C111.098 42.5422 110.913 40.0789 110.545 37.8671C110.176 35.6217 109.757 33.6946 109.288 32.086C107.948 35.4038 106.758 38.1687 105.719 40.3806C104.68 42.5589 104.11 44.3854 104.01 45.86C103.976 46.0946 103.825 46.3459 103.557 46.614C103.323 46.9157 103.055 47.0665 102.753 47.0665C102.518 47.0665 102.284 46.8989 102.049 46.5638C101.848 46.2622 101.748 45.7427 101.748 45.0054C101.748 44.2346 101.831 43.2292 101.999 41.9892C102.166 40.7492 102.25 39.5595 102.25 38.42C102.25 37.3476 102.099 36.4092 101.798 35.6049C101.496 34.8006 100.91 34.3817 100.038 34.3482C99.3346 34.3482 98.6811 34.6833 98.0779 35.3536C97.9438 35.4876 97.8433 35.5546 97.7762 35.5546C97.6757 35.5546 97.6254 35.4709 97.6254 35.3033C97.6254 35.1357 97.6757 34.9514 97.7762 34.7503C98.0443 34.0801 98.5303 33.6109 99.2341 33.3428C99.9714 33.0747 100.575 32.9406 101.044 32.9406C102.25 32.9406 103.071 33.2757 103.507 33.946C103.976 34.5828 104.211 35.4373 104.211 36.5098C104.211 37.4817 104.077 38.6044 103.809 39.8779C103.574 41.1179 103.323 42.4249 103.055 43.7989C103.725 42.5589 104.579 40.833 105.618 38.6211C106.657 36.4092 107.797 33.9125 109.037 31.1309L108.584 29.8239V29.673C108.584 29.3379 108.685 29.0866 108.886 28.919C109.12 28.7514 109.355 28.6676 109.59 28.6676C109.791 28.6676 109.992 28.7179 110.193 28.8185C110.394 28.919 110.528 29.0698 110.595 29.2709C110.997 30.1757 111.332 31.4157 111.6 32.9909C111.902 34.566 112.12 36.2752 112.254 38.1184C112.422 39.9281 112.505 41.7211 112.505 43.4973C112.505 44.8378 112.455 46.0946 112.355 47.2676C113.192 47.1 114.03 46.9827 114.868 46.9157C115.706 46.8486 116.594 46.7816 117.532 46.7146H117.733C118.035 46.7146 118.186 46.7816 118.186 46.9157C118.186 47.1838 117.834 47.3513 117.13 47.4184C116.326 47.4854 115.505 47.5692 114.667 47.6697C113.863 47.8038 113.042 47.9713 112.204 48.1724C111.5 52.0264 110.394 55.1097 108.886 57.4221C107.411 59.768 105.886 61.5275 104.311 62.7004C103.172 63.5383 102.049 64.1415 100.943 64.5102C99.8708 64.9123 98.8654 65.1134 97.927 65.1134ZM97.5249 64.0577C98.0946 64.0577 98.7481 63.9404 99.4854 63.7058C100.256 63.4712 101.061 63.1026 101.898 62.5999C104.579 61.0248 106.657 59.0307 108.132 56.6178C109.606 54.2383 110.545 51.5237 110.947 48.474C109.171 48.9432 107.378 49.6135 105.568 50.4848C103.758 51.3897 102.066 52.4286 100.491 53.6016C98.9492 54.8081 97.6254 56.1318 96.5195 57.5729C95.9498 58.3102 95.5308 59.014 95.2627 59.6842C94.9946 60.3545 94.8606 60.9745 94.8606 61.5442C94.8606 62.315 95.0952 62.9183 95.5644 63.354C96.0335 63.8231 96.6871 64.0577 97.5249 64.0577ZM116.617 43.5978C116.014 43.5978 115.578 43.3465 115.31 42.8438C115.042 42.3076 114.908 41.6876 114.908 40.9838C114.908 40.0789 115.059 39.0233 115.361 37.8168C115.696 36.6103 116.131 35.3703 116.668 34.0968C117.204 32.7898 117.807 31.6001 118.477 30.5276C119.181 29.4217 119.918 28.5336 120.689 27.8633C121.46 27.1595 122.214 26.8077 122.951 26.8077C123.622 26.8077 124.191 27.1093 124.66 27.7125C125.163 28.2822 125.415 28.9358 125.415 29.673C125.415 30.1087 125.347 30.4774 125.213 30.779C125.079 31.0471 124.929 31.1811 124.761 31.1811C124.627 31.1811 124.51 31.0806 124.409 30.8795C124.074 30.1087 123.705 29.5558 123.303 29.2206C122.935 28.8855 122.549 28.7179 122.147 28.7179C121.477 28.7179 120.806 29.1033 120.136 29.8741C119.499 30.6114 118.98 31.466 118.578 32.4379C118.243 33.1752 117.924 34.0633 117.623 35.1022C117.355 36.1076 117.12 37.113 116.919 38.1184C116.751 39.0903 116.668 39.8946 116.668 40.5314C116.668 41.6708 116.936 42.2405 117.472 42.2405C118.142 42.2405 118.997 41.5033 120.036 40.0287C120.806 38.9562 121.493 37.7162 122.097 36.3087C122.733 34.9011 123.27 33.6779 123.705 32.639C123.873 32.3038 124.057 32.086 124.258 31.9855C124.459 31.8849 124.644 31.8347 124.811 31.8347C125.213 31.8347 125.465 32.0022 125.565 32.3374C125.699 32.6725 125.766 32.9574 125.766 33.1919C125.766 34.0633 125.683 34.8509 125.515 35.5546C125.347 36.2249 125.264 37.046 125.264 38.0179C125.264 38.7216 125.314 39.3752 125.415 39.9784C125.549 40.5481 125.766 40.833 126.068 40.833C126.437 40.833 126.906 40.3638 127.476 39.4254C127.61 39.1573 127.811 39.0233 128.079 39.0233C128.38 39.0233 128.531 39.1741 128.531 39.4757C128.531 39.9114 128.23 40.3806 127.626 40.8833C127.023 41.3524 126.42 41.587 125.817 41.587C125.012 41.587 124.443 41.2519 124.108 40.5816C123.538 39.4757 123.253 38.4871 123.253 37.6157C123.253 36.7108 123.236 36.0909 123.203 35.7557C123.035 36.1579 122.717 36.7946 122.248 37.666C121.778 38.5038 121.225 39.3919 120.589 40.3303C119.952 41.2351 119.282 42.006 118.578 42.6427C117.874 43.2795 117.221 43.5978 116.617 43.5978ZM134.749 46.5135C133.677 46.5135 132.856 46.0108 132.286 45.0054C131.716 44.0335 131.432 42.9611 131.432 41.7881C131.432 40.6822 131.616 39.526 131.985 38.3195C132.353 37.113 132.806 35.9233 133.342 34.7503C133.912 33.5774 134.498 32.5049 135.101 31.533C134.498 31.7676 133.928 31.8849 133.392 31.8849C133.124 31.8849 132.889 31.8514 132.688 31.7844C132.487 31.7174 132.32 31.6671 132.186 31.6336C132.018 32.0357 131.716 32.706 131.281 33.6444C130.879 34.5828 130.443 35.5714 129.974 36.6103C129.538 37.6157 129.153 38.4703 128.818 39.1741C128.281 40.3135 127.812 40.8833 127.41 40.8833C127.209 40.8833 127.108 40.7492 127.108 40.4811C127.108 40.28 127.192 40.0119 127.36 39.6768C128.131 38.2357 128.851 36.8114 129.521 35.4038C130.225 33.9963 130.862 32.639 131.432 31.332C131.365 31.1644 131.298 30.9466 131.231 30.6784C131.163 30.3768 131.13 30.0585 131.13 29.7233C131.13 29.3547 131.163 28.9693 131.231 28.5671C131.331 28.1314 131.465 27.7125 131.633 27.3104C131.733 27.0758 131.918 26.7406 132.186 26.305C132.454 25.8358 132.755 25.4169 133.091 25.0482C133.426 24.646 133.744 24.445 134.046 24.445C134.615 24.445 134.9 24.7466 134.9 25.3498C134.9 25.9196 134.716 26.5731 134.347 27.3104C134.012 28.0477 133.66 28.7347 133.292 29.3714C132.923 29.9747 132.739 30.4271 132.739 30.7287C132.739 30.9968 132.873 31.1309 133.141 31.1309C133.509 31.1309 133.962 30.9466 134.498 30.5779C135.068 30.1757 135.52 29.8071 135.855 29.472C136.023 29.3044 136.291 29.0531 136.66 28.7179C137.028 28.3493 137.38 28.1649 137.715 28.1649C138.05 28.1649 138.268 28.2655 138.369 28.4666C138.503 28.6676 138.57 28.9022 138.57 29.1703C138.57 29.472 138.436 29.8574 138.168 30.3266C137.9 30.7622 137.581 31.1979 137.213 31.6336C136.878 32.0693 136.593 32.4379 136.358 32.7395C135.889 33.4433 135.353 34.3314 134.749 35.4038C134.146 36.4763 133.627 37.6325 133.191 38.8725C132.755 40.0789 132.538 41.2351 132.538 42.3411C132.538 43.0784 132.722 43.8492 133.091 44.6535C133.459 45.4578 133.962 45.86 134.599 45.86C135.168 45.86 135.772 45.5584 136.408 44.9551C137.079 44.3519 137.699 43.6314 138.268 42.7935C138.872 41.9557 139.391 41.1514 139.827 40.3806C140.296 39.6098 140.614 39.0735 140.782 38.7719C140.849 38.6044 140.966 38.4033 141.134 38.1687C141.301 37.9006 141.502 37.7665 141.737 37.7665C141.938 37.7665 142.039 37.8671 142.039 38.0681C142.039 38.2357 141.988 38.4368 141.888 38.6714C141.821 38.8725 141.754 39.0568 141.687 39.2243C141.385 39.9281 141.016 40.6654 140.581 41.4362C140.145 42.207 139.843 42.7265 139.676 42.9946C139.207 43.7654 138.503 44.5362 137.565 45.307C136.66 46.1113 135.721 46.5135 134.749 46.5135ZM142.734 43.5978C142.131 43.5978 141.695 43.3465 141.427 42.8438C141.159 42.3076 141.025 41.6876 141.025 40.9838C141.025 40.0789 141.176 39.0233 141.477 37.8168C141.812 36.6103 142.248 35.3703 142.784 34.0968C143.321 32.7898 143.924 31.6001 144.594 30.5276C145.298 29.4217 146.035 28.5336 146.806 27.8633C147.577 27.1595 148.331 26.8077 149.068 26.8077C149.738 26.8077 150.308 27.1093 150.777 27.7125C151.28 28.2822 151.531 28.9358 151.531 29.673C151.531 30.1087 151.464 30.4774 151.33 30.779C151.196 31.0471 151.045 31.1811 150.878 31.1811C150.744 31.1811 150.627 31.0806 150.526 30.8795C150.191 30.1087 149.822 29.5558 149.42 29.2206C149.051 28.8855 148.666 28.7179 148.264 28.7179C147.594 28.7179 146.923 29.1033 146.253 29.8741C145.616 30.6114 145.097 31.466 144.695 32.4379C144.36 33.1752 144.041 34.0633 143.74 35.1022C143.471 36.1076 143.237 37.113 143.036 38.1184C142.868 39.0903 142.784 39.8946 142.784 40.5314C142.784 41.6708 143.052 42.2405 143.589 42.2405C144.259 42.2405 145.114 41.5033 146.152 40.0287C146.923 38.9562 147.61 37.7162 148.214 36.3087C148.85 34.9011 149.387 33.6779 149.822 32.639C149.99 32.3038 150.174 32.086 150.375 31.9855C150.576 31.8849 150.761 31.8347 150.928 31.8347C151.33 31.8347 151.582 32.0022 151.682 32.3374C151.816 32.6725 151.883 32.9574 151.883 33.1919C151.883 34.0633 151.799 34.8509 151.632 35.5546C151.464 36.2249 151.381 37.046 151.381 38.0179C151.381 38.7216 151.431 39.3752 151.531 39.9784C151.665 40.5481 151.883 40.833 152.185 40.833C152.554 40.833 153.023 40.3638 153.592 39.4254C153.726 39.1573 153.928 39.0233 154.196 39.0233C154.497 39.0233 154.648 39.1741 154.648 39.4757C154.648 39.9114 154.346 40.3806 153.743 40.8833C153.14 41.3524 152.537 41.587 151.934 41.587C151.129 41.587 150.559 41.2519 150.224 40.5816C149.655 39.4757 149.37 38.4871 149.37 37.6157C149.37 36.7108 149.353 36.0909 149.319 35.7557C149.152 36.1579 148.834 36.7946 148.364 37.666C147.895 38.5038 147.342 39.3919 146.705 40.3303C146.069 41.2351 145.398 42.006 144.695 42.6427C143.991 43.2795 143.337 43.5978 142.734 43.5978Z" fill="white"/>
</svg>
