<svg width="119" height="15" viewBox="0 0 119 15" fill="none" xmlns="http://www.w3.org/2000/svg">
<path d="M118.5 7.5C118.5 7.5 115.308 10.0567 112.946 9.65262C114.023 11.0734 114.063 12.6135 112.946 15C111.093 11.1105 105.217 9.00069 101.828 8.07897H97.4496C97.0517 9.07365 95.6687 9.8101 94.0085 9.8101C92.3483 9.8101 90.9653 9.07365 90.5662 8.07897H0.5V6.92103H90.5662C90.9653 5.92751 92.3483 5.1899 94.0085 5.1899C95.6687 5.1899 97.0517 5.92751 97.4508 6.92103H101.827C105.216 5.9993 111.092 3.89069 112.946 -9.53674e-07C114.063 2.38652 114.023 3.92659 112.946 5.34738C115.308 4.94326 118.5 7.5 118.5 7.5Z" fill="#663E2A"/>
</svg>
