<svg width="50" height="16" viewBox="0 0 50 16" fill="none" xmlns="http://www.w3.org/2000/svg">
<path d="M0 8C0 8 3.19167 10.5567 5.5538 10.1526C4.47715 11.5734 4.43654 13.1135 5.5538 15.5C7.40661 11.6105 13.2829 9.50069 16.6718 8.57897H21.0504C21.4495 9.57365 22.8313 10.3101 24.4915 10.3101C26.1517 10.3101 27.5346 9.57365 27.9338 8.57897L50 8.57897V7.42103L27.9338 7.42103C27.5346 6.42751 26.1517 5.6899 24.4915 5.6899C22.8313 5.6899 21.4483 6.42751 21.0504 7.42103H16.673C13.2841 6.49931 7.40777 4.39069 5.5538 0.5C4.43654 2.88652 4.47715 4.42659 5.5538 5.84738C3.19167 5.44326 0 8 0 8Z" fill="white"/>
</svg>
