<svg width="119" height="16" viewBox="0 0 119 16" fill="none" xmlns="http://www.w3.org/2000/svg">
<path d="M0.5 8C0.5 8 3.69167 10.5567 6.0538 10.1526C4.97715 11.5734 4.93654 13.1135 6.0538 15.5C7.90662 11.6105 13.7829 9.50069 17.1718 8.57897H21.5504C21.9495 9.57365 23.3313 10.3101 24.9915 10.3101C26.6517 10.3101 28.0346 9.57365 28.4338 8.57897H118.5V7.42103H28.4338C28.0346 6.42751 26.6517 5.6899 24.9915 5.6899C23.3313 5.6899 21.9483 6.42751 21.5504 7.42103H17.173C13.7841 6.4993 7.90778 4.39069 6.0538 0.499999C4.93654 2.88652 4.97715 4.42659 6.0538 5.84738C3.69167 5.44326 0.5 8 0.5 8Z" fill="white"/>
</svg>
