<svg width="50" height="16" viewBox="0 0 50 16" fill="none" xmlns="http://www.w3.org/2000/svg">
<path d="M50 8C50 8 46.8083 10.5567 44.4462 10.1526C45.5228 11.5734 45.5635 13.1135 44.4462 15.5C42.5934 11.6105 36.7171 9.50069 33.3282 8.57897H28.9496C28.5505 9.57365 27.1687 10.3101 25.5085 10.3101C23.8483 10.3101 22.4654 9.57365 22.0662 8.57897L0 8.57897V7.42103L22.0662 7.42103C22.4654 6.42751 23.8483 5.6899 25.5085 5.6899C27.1687 5.6899 28.5517 6.42751 28.9496 7.42103H33.327C36.7159 6.49931 42.5922 4.39069 44.4462 0.5C45.5635 2.88652 45.5228 4.42659 44.4462 5.84738C46.8083 5.44326 50 8 50 8Z" fill="white"/>
</svg>
