<svg width="119" height="15" viewBox="0 0 119 15" fill="none" xmlns="http://www.w3.org/2000/svg">
<path d="M0.5 7.5C0.5 7.5 3.69167 10.0567 6.05381 9.65262C4.97716 11.0734 4.93655 12.6135 6.05381 15C7.90662 11.1105 13.783 9.00069 17.1719 8.07897H21.5504C21.9483 9.07365 23.3313 9.8101 24.9915 9.8101C26.6517 9.8101 28.0347 9.07365 28.4338 8.07897H118.5V6.92103H28.4338C28.0347 5.92751 26.6517 5.1899 24.9915 5.1899C23.3313 5.1899 21.9483 5.92751 21.5492 6.92103H17.173C13.7841 5.9993 7.90778 3.89069 6.05381 -9.53674e-07C4.93655 2.38652 4.97716 3.92659 6.05381 5.34738C3.69167 4.94326 0.5 7.5 0.5 7.5Z" fill="#663E2A"/>
</svg>
