<svg width="119" height="16" viewBox="0 0 119 16" fill="none" xmlns="http://www.w3.org/2000/svg">
<path d="M118.5 8C118.5 8 115.308 10.5567 112.946 10.1526C114.023 11.5734 114.063 13.1135 112.946 15.5C111.093 11.6105 105.217 9.50069 101.828 8.57897H97.4496C97.0517 9.57365 95.6687 10.3101 94.0085 10.3101C92.3483 10.3101 90.9653 9.57365 90.5662 8.57897H0.5V7.42103H90.5662C90.9653 6.42751 92.3483 5.6899 94.0085 5.6899C95.6687 5.6899 97.0517 6.42751 97.4508 7.42103H101.827C105.216 6.4993 111.092 4.39069 112.946 0.499999C114.063 2.88652 114.023 4.42659 112.946 5.84738C115.308 5.44326 118.5 8 118.5 8Z" fill="white"/>
</svg>
