<svg width="278" height="278" viewBox="0 0 278 278" fill="none" xmlns="http://www.w3.org/2000/svg">
<circle cx="139" cy="139" r="139" fill="#6F7D5C"/>
<path d="M150.027 240C145.629 240 141.554 238.452 137.803 235.356C134.052 232.259 131.465 228.324 130.042 223.551C129.525 221.745 129.137 219.81 128.878 217.745C128.749 215.81 128.684 213.746 128.684 211.553C128.684 204.586 129.59 196.652 131.401 187.75C133.341 178.848 135.798 169.431 138.773 159.497C141.878 149.434 145.241 139.371 148.862 129.308C152.613 119.116 156.235 109.311 159.728 99.8932C163.349 90.3464 166.648 81.5736 169.623 73.5748C172.598 65.4471 174.926 58.6095 176.607 53.062C177.513 50.2237 177.965 47.9015 177.965 46.0953C177.965 43.7731 177.189 42.612 175.637 42.612C173.697 42.612 170.722 44.4827 166.712 48.224C162.703 51.9654 158.111 57.0613 152.937 63.5119C147.763 69.9625 142.395 77.4452 136.833 85.96C131.271 94.4747 125.968 103.506 120.924 113.052C115.879 122.599 111.481 132.275 107.73 142.08C103.979 151.885 101.263 161.367 99.5814 170.527C99.452 171.43 99.3227 172.849 99.1933 174.785C99.064 176.72 98.7406 178.461 98.2232 180.01C97.8352 181.558 96.9945 182.332 95.701 182.332C92.8554 182.203 90.8505 180.784 89.6864 178.074C88.6516 175.365 87.9402 172.849 87.5522 170.527C86.5174 163.69 86 155.691 86 146.531C86 139.177 86.3234 131.566 86.9701 123.696C87.6168 115.826 88.5223 108.344 89.6864 101.248C90.8505 94.1522 92.2086 88.1532 93.7608 83.2507C94.7956 80.1544 96.2184 77.3807 98.0292 74.9295C99.9694 72.3492 101.716 71.0591 103.268 71.0591C104.173 71.0591 104.885 71.7042 105.402 72.9943C106.049 74.2844 106.307 76.6066 106.178 79.9609C106.178 81.38 105.531 84.0893 104.238 88.0887C103.074 91.959 101.651 96.9905 99.9694 103.183C98.4173 109.376 97.0591 116.536 95.895 124.663C94.7309 132.791 94.1488 141.758 94.1488 151.562C94.1488 156.207 94.3429 161.045 94.7309 166.076C95.895 162.464 97.6412 157.432 99.9694 150.982C102.427 144.531 105.402 137.242 108.894 129.114C112.516 120.987 116.526 112.601 120.924 103.957C125.451 95.1843 130.301 86.6695 135.475 78.4128C140.649 70.156 146.081 62.6733 151.773 55.9647C157.464 49.2561 163.285 43.9021 169.234 39.9028C172.209 37.9676 175.314 37 178.547 37C182.04 37 185.015 38.0966 187.472 40.2898C190.059 42.483 191.223 45.5793 190.965 49.5786C190.706 54.9971 189.348 60.4801 186.89 66.0276C184.562 71.4461 181.781 76.7356 178.547 81.8961C175.443 87.0566 172.533 92.0235 169.817 96.7969C166.066 103.635 162.25 111.246 158.369 119.632C154.618 128.018 151.126 136.791 147.892 145.95C144.788 155.11 142.266 164.335 140.326 173.623C138.385 182.912 137.415 191.879 137.415 200.522C137.415 207.747 138.321 214.778 140.132 221.616C141.554 226.647 143.301 230.131 145.37 232.066C147.569 234.001 149.703 234.969 151.773 234.969C154.101 234.969 156.235 234.323 158.175 233.033C160.245 231.743 161.862 230.324 163.026 228.776C164.319 227.357 164.901 226.518 164.772 226.26C165.031 226.131 165.289 226.067 165.548 226.067C166.454 226.067 166.648 226.647 166.13 227.808C165.742 229.099 165.16 230.389 164.384 231.679C163.608 233.098 163.026 234.001 162.638 234.388C160.698 236.323 158.628 237.742 156.429 238.645C154.36 239.548 152.225 240 150.027 240Z" fill="white"/>
</svg>
